<svg width="165" height="48" viewBox="0 0 165 48" fill="none" xmlns="http://www.w3.org/2000/svg">
<path d="M67.5972 12.952C67.831 13.1845 68.1037 13.3699 68.4154 13.5076C68.7271 13.6457 69.0647 13.7144 69.4284 13.7144C69.792 13.7144 70.1297 13.6457 70.4414 13.5076C70.753 13.3699 71.0258 13.1845 71.2595 12.952C71.4933 12.7194 71.6751 12.448 71.805 12.1379C71.9349 11.8278 71.9998 11.5007 71.9998 11.1558C71.9998 10.3979 71.753 9.77767 71.2595 9.29515C70.766 8.813 70.1556 8.57153 69.4284 8.57153C68.7011 8.57153 68.0907 8.813 67.5972 9.29515C67.1037 9.77767 66.8569 10.3979 66.8569 11.1558C66.8569 11.5007 66.9219 11.8278 67.0517 12.1379C67.1816 12.448 67.3634 12.7194 67.5972 12.952H67.5972Z" fill="white"/>
<path d="M77.6883 9.29515C77.1947 8.813 76.5843 8.57153 75.8571 8.57153C75.1298 8.57153 74.5194 8.813 74.0259 9.29515C73.5324 9.77767 73.2856 10.3979 73.2856 11.1558C73.2856 11.5007 73.3506 11.8278 73.4804 12.1379C73.6103 12.448 73.7921 12.7194 74.0259 12.952C74.2597 13.1845 74.5324 13.3699 74.8441 13.5076C75.1558 13.6457 75.4934 13.7144 75.8571 13.7144C76.2207 13.7144 76.5584 13.6457 76.8701 13.5076C77.1818 13.3699 77.4545 13.1845 77.6882 12.952C77.922 12.7194 78.1038 12.448 78.2337 12.1379C78.3636 11.8278 78.4285 11.5007 78.4285 11.1558C78.4285 10.3979 78.1818 9.77767 77.6882 9.29515H77.6883Z" fill="white"/>
<path d="M25.7145 34.2859C24.9872 34.2859 24.3768 34.5273 23.8833 35.0095C23.3898 35.492 23.1431 36.1124 23.1431 36.8703C23.1431 37.2151 23.208 37.5422 23.3379 37.8523C23.4677 38.1624 23.6496 38.4338 23.8833 38.6664C24.1171 38.899 24.3898 39.0843 24.7015 39.222C25.0132 39.3601 25.3509 39.4287 25.7145 39.4287C26.0781 39.4287 26.4158 39.3601 26.7275 39.222C27.0392 39.0843 27.3119 38.899 27.5457 38.6664C27.7794 38.4338 27.9612 38.1624 28.0911 37.8523C28.221 37.5422 28.2859 37.2151 28.2859 36.8703C28.2859 36.1124 28.0392 35.492 27.5457 35.0095C27.0522 34.5273 26.4418 34.2859 25.7145 34.2859Z" fill="white"/>
<path d="M32.1427 34.2859C31.4155 34.2859 30.805 34.5273 30.3115 35.0095C29.818 35.492 29.5713 36.1124 29.5713 36.8703C29.5713 37.2151 29.6362 37.5422 29.7661 37.8523C29.896 38.1624 30.0778 38.4338 30.3115 38.6664C30.5453 38.899 30.818 39.0843 31.1297 39.222C31.4414 39.3601 31.7791 39.4287 32.1427 39.4287C32.5063 39.4287 32.844 39.3601 33.1557 39.222C33.4674 39.0843 33.7401 38.899 33.9739 38.6664C34.2077 38.4338 34.3895 38.1624 34.5193 37.8523C34.6492 37.5422 34.7141 37.2151 34.7141 36.8703C34.7141 36.1124 34.4674 35.492 33.9739 35.0095C33.4804 34.5273 32.87 34.2859 32.1427 34.2859Z" fill="white"/>
<path d="M60.4284 34.2859C59.7011 34.2859 59.0907 34.5273 58.5972 35.0095C58.1037 35.492 57.8569 36.1124 57.8569 36.8703C57.8569 37.2151 57.9219 37.5422 58.0517 37.8523C58.1816 38.1624 58.3634 38.4338 58.5972 38.6664C58.831 38.899 59.1037 39.0843 59.4154 39.222C59.7271 39.3601 60.0647 39.4287 60.4284 39.4287C60.792 39.4287 61.1297 39.3601 61.4414 39.222C61.753 39.0843 62.0258 38.899 62.2595 38.6664C62.4933 38.4338 62.6751 38.1624 62.805 37.8523C62.9349 37.5422 62.9998 37.2151 62.9998 36.8703C62.9998 36.1124 62.753 35.492 62.2595 35.0095C61.766 34.5273 61.1556 34.2859 60.4284 34.2859Z" fill="white"/>
<path d="M73.4841 26.4642C73.4841 27.1643 72.9607 27.7337 72.3173 27.7337H63.2519V16.2859H59.5933V27.7337L53.4394 27.7338C52.494 20.1765 47.7321 18.0012 43.149 16.3361L42.092 20.147C46.7754 21.9125 48.8828 23.6309 49.766 27.7338L39.8569 27.7337V31.7145H72.3173C74.978 31.7145 77.1426 29.3592 77.1426 26.4642V16.2859H73.4841V26.4642Z" fill="white"/>
<path d="M31.0372 16.4705V26.414C31.0372 27.0979 30.5112 27.6542 29.8645 27.6542H22.0084V8.57153H18.2892V27.8294C18.2892 32.0846 15.0276 35.5341 11.0042 35.5341H11.0042C6.98077 35.5341 3.71914 32.0846 3.71914 27.8294V27.6716H0V27.7905C0 34.218 4.92674 39.4287 11.0042 39.4287H11.0042C15.8385 39.4287 19.9351 36.1269 21.4127 31.543H29.8645C32.5387 31.543 34.7143 29.2421 34.7143 26.414V16.4705H31.0372H31.0372Z" fill="white"/>
<path d="M158.078 0H97.5327C93.8458 0 90.8569 3.02953 90.8569 6.76669V41.2333C90.8569 44.9705 93.8458 48 97.5327 48H158.078C161.765 48 164.753 44.9705 164.753 41.2333V38.4464H156.828C156.474 40.9817 154.172 42.7622 151.661 42.4294C149.134 42.0944 147.354 39.7462 147.684 37.1849C148.014 34.6232 150.331 32.8184 152.858 33.1531C154.961 33.432 156.546 35.1059 156.829 37.1361H164.753V6.76669C164.753 3.02953 161.765 0 158.078 0ZM116.239 0.00032161H117.531V4.9602L120.089 7.55327C121.02 6.84339 122.215 6.48748 123.461 6.65275C125.988 6.9878 127.769 9.33568 127.438 11.8973C127.108 14.4586 124.791 16.2635 122.264 15.9287C119.737 15.5937 117.956 13.2458 118.287 10.6842C118.394 9.85365 118.711 9.10365 119.175 8.47945L116.239 5.50319V0.00032161ZM103.797 10.6842C104.071 8.55231 105.723 6.94544 107.726 6.6595V0.00032161H109.019V6.66046C111.52 7.01861 113.276 9.35205 112.948 11.8973C112.617 14.4586 110.301 16.2635 107.774 15.9288C105.247 15.5937 103.466 13.2458 103.797 10.6842ZM156.325 12.8659C144.24 26.3225 129.551 36.2696 118.572 41.9089C116.83 42.8042 115.179 42.5177 113.554 41.4711C108.096 37.9531 101.593 32.182 97.0711 24.4711C96.6709 23.7885 96.3711 22.622 97.4989 21.8723C98.3876 21.2805 99.4451 21.6871 99.9542 22.404C102.751 26.3469 107.626 29.3562 112.999 30.0696C116.334 30.5106 120.268 29.7718 122.519 28.9387C133.632 24.8277 144.141 17.9904 154.318 9.90565C154.628 9.66047 155.753 9.41175 156.54 10.3161C157.468 11.3835 156.592 12.5693 156.325 12.8659Z" fill="#F0BA0B"/>
<path d="M107.774 15.9284C110.301 16.2632 112.618 14.4583 112.948 11.897C113.277 9.35174 111.52 7.01829 109.019 6.66014V0H107.726V6.65918C105.723 6.94512 104.072 8.55198 103.797 10.6839C103.466 13.2455 105.247 15.5934 107.774 15.9284Z" fill="#0B0D10"/>
<path d="M118.286 10.6839C117.955 13.2455 119.736 15.5934 122.263 15.9284C124.79 16.2632 127.107 14.4583 127.437 11.897C127.768 9.33537 125.987 6.98748 123.46 6.65244C122.214 6.48716 121.019 6.84307 120.088 7.55296L117.531 4.95989V0H116.238V5.50289L119.174 8.47914C118.71 9.10334 118.393 9.85334 118.286 10.6839V10.6839Z" fill="#0B0D10"/>
<path d="M152.858 33.1532C150.33 32.8185 148.014 34.6234 147.684 37.185C147.353 39.7463 149.134 42.0945 151.661 42.4296C154.172 42.7624 156.474 40.9819 156.827 38.4466H164.753V37.1362H156.828C156.546 35.1061 154.961 33.4321 152.858 33.1532H152.858Z" fill="#0B0D10"/>
<path d="M154.318 9.90577C144.14 17.9905 133.632 24.8278 122.518 28.9388C120.268 29.7719 116.334 30.5107 112.998 30.0698C107.625 29.3564 102.751 26.347 99.9537 22.4042C99.4446 21.6872 98.3871 21.2806 97.4983 21.8724C96.3705 22.6221 96.6704 23.7886 97.0706 24.4712C101.593 32.1821 108.095 37.9533 113.554 41.4712C115.178 42.5178 116.83 42.8044 118.572 41.909C129.55 36.2697 144.239 26.3227 156.324 12.866C156.591 12.5694 157.468 11.3836 156.54 10.3162C155.752 9.41187 154.627 9.66059 154.318 9.90577H154.318Z" fill="#0B0D10"/>
</svg>
